<mxfile host="app.diagrams.net" modified="2022-09-17T21:00:10.571Z" agent="5.0 (Windows NT 10.0; Win64; x64) AppleWebKit/537.36 (KHTML, like Gecko) Chrome/105.0.0.0 Safari/537.36" etag="hOr5uw8SPBDuRvwNyu6j" version="20.3.2" type="github">
  <diagram id="WBG1F1Iy924rWPLagg-S" name="Page-1">
    <mxGraphModel dx="1673" dy="896" grid="1" gridSize="10" guides="1" tooltips="1" connect="1" arrows="1" fold="1" page="1" pageScale="1" pageWidth="850" pageHeight="1100" math="0" shadow="0">
      <root>
        <mxCell id="0" />
        <mxCell id="1" parent="0" />
        <mxCell id="hTG3Fp_eBAEKHdMktmrF-2" value="VPC" style="points=[[0,0],[0.25,0],[0.5,0],[0.75,0],[1,0],[1,0.25],[1,0.5],[1,0.75],[1,1],[0.75,1],[0.5,1],[0.25,1],[0,1],[0,0.75],[0,0.5],[0,0.25]];outlineConnect=0;gradientColor=none;html=1;whiteSpace=wrap;fontSize=12;fontStyle=0;container=1;pointerEvents=0;collapsible=0;recursiveResize=0;shape=mxgraph.aws4.group;grIcon=mxgraph.aws4.group_vpc;strokeColor=#248814;fillColor=none;verticalAlign=top;align=left;spacingLeft=30;fontColor=#AAB7B8;dashed=0;" vertex="1" parent="1">
          <mxGeometry x="140" y="80" width="550" height="760" as="geometry" />
        </mxCell>
        <mxCell id="hTG3Fp_eBAEKHdMktmrF-6" style="edgeStyle=orthogonalEdgeStyle;rounded=0;orthogonalLoop=1;jettySize=auto;html=1;entryX=0.5;entryY=0;entryDx=0;entryDy=0;entryPerimeter=0;" edge="1" parent="hTG3Fp_eBAEKHdMktmrF-2" source="hTG3Fp_eBAEKHdMktmrF-1" target="hTG3Fp_eBAEKHdMktmrF-5">
          <mxGeometry relative="1" as="geometry" />
        </mxCell>
        <mxCell id="hTG3Fp_eBAEKHdMktmrF-1" value="" style="outlineConnect=0;dashed=0;verticalLabelPosition=bottom;verticalAlign=top;align=center;html=1;shape=mxgraph.aws3.internet_gateway;fillColor=#F58534;gradientColor=none;" vertex="1" parent="hTG3Fp_eBAEKHdMktmrF-2">
          <mxGeometry x="240" y="-40" width="69" height="72" as="geometry" />
        </mxCell>
        <mxCell id="hTG3Fp_eBAEKHdMktmrF-4" value="" style="outlineConnect=0;dashed=0;verticalLabelPosition=bottom;verticalAlign=top;align=center;html=1;shape=mxgraph.aws3.virtual_private_cloud;fillColor=#F58534;gradientColor=none;" vertex="1" parent="hTG3Fp_eBAEKHdMktmrF-2">
          <mxGeometry x="-20" y="-22" width="79.5" height="54" as="geometry" />
        </mxCell>
        <mxCell id="hTG3Fp_eBAEKHdMktmrF-25" style="edgeStyle=orthogonalEdgeStyle;rounded=0;orthogonalLoop=1;jettySize=auto;html=1;exitX=0.5;exitY=1;exitDx=0;exitDy=0;exitPerimeter=0;" edge="1" parent="hTG3Fp_eBAEKHdMktmrF-2" source="hTG3Fp_eBAEKHdMktmrF-5" target="hTG3Fp_eBAEKHdMktmrF-23">
          <mxGeometry relative="1" as="geometry" />
        </mxCell>
        <mxCell id="hTG3Fp_eBAEKHdMktmrF-5" value="" style="outlineConnect=0;dashed=0;verticalLabelPosition=bottom;verticalAlign=top;align=center;html=1;shape=mxgraph.aws3.application_load_balancer;fillColor=#F58534;gradientColor=none;" vertex="1" parent="hTG3Fp_eBAEKHdMktmrF-2">
          <mxGeometry x="240" y="90" width="69" height="72" as="geometry" />
        </mxCell>
        <mxCell id="hTG3Fp_eBAEKHdMktmrF-19" value="Private subnet" style="points=[[0,0],[0.25,0],[0.5,0],[0.75,0],[1,0],[1,0.25],[1,0.5],[1,0.75],[1,1],[0.75,1],[0.5,1],[0.25,1],[0,1],[0,0.75],[0,0.5],[0,0.25]];outlineConnect=0;gradientColor=none;html=1;whiteSpace=wrap;fontSize=12;fontStyle=0;container=1;pointerEvents=0;collapsible=0;recursiveResize=0;shape=mxgraph.aws4.group;grIcon=mxgraph.aws4.group_security_group;grStroke=0;strokeColor=#147EBA;fillColor=#E6F2F8;verticalAlign=top;align=left;spacingLeft=30;fontColor=#147EBA;dashed=0;" vertex="1" parent="hTG3Fp_eBAEKHdMktmrF-2">
          <mxGeometry x="410" y="210" width="130" height="550" as="geometry" />
        </mxCell>
        <mxCell id="hTG3Fp_eBAEKHdMktmrF-20" value="" style="outlineConnect=0;dashed=0;verticalLabelPosition=bottom;verticalAlign=top;align=center;html=1;shape=mxgraph.aws3.ec2;fillColor=#F58534;gradientColor=none;" vertex="1" parent="hTG3Fp_eBAEKHdMktmrF-19">
          <mxGeometry x="26.75" y="18.5" width="76.5" height="93" as="geometry" />
        </mxCell>
        <mxCell id="hTG3Fp_eBAEKHdMktmrF-22" value="" style="outlineConnect=0;dashed=0;verticalLabelPosition=bottom;verticalAlign=top;align=center;html=1;shape=mxgraph.aws3.ec2;fillColor=#F58534;gradientColor=none;strokeWidth=1;" vertex="1" parent="hTG3Fp_eBAEKHdMktmrF-19">
          <mxGeometry x="26.75" y="430" width="76.5" height="93" as="geometry" />
        </mxCell>
        <mxCell id="hTG3Fp_eBAEKHdMktmrF-48" value="&lt;font style=&quot;font-size: 12px;&quot;&gt;EC2 Instance&lt;br&gt;&lt;/font&gt;" style="text;html=1;align=center;verticalAlign=middle;resizable=0;points=[];autosize=1;strokeColor=none;fillColor=none;fontSize=20;" vertex="1" parent="hTG3Fp_eBAEKHdMktmrF-19">
          <mxGeometry x="15" y="510" width="100" height="40" as="geometry" />
        </mxCell>
        <mxCell id="hTG3Fp_eBAEKHdMktmrF-13" value="Private subnet" style="points=[[0,0],[0.25,0],[0.5,0],[0.75,0],[1,0],[1,0.25],[1,0.5],[1,0.75],[1,1],[0.75,1],[0.5,1],[0.25,1],[0,1],[0,0.75],[0,0.5],[0,0.25]];outlineConnect=0;gradientColor=none;html=1;whiteSpace=wrap;fontSize=12;fontStyle=0;container=1;pointerEvents=0;collapsible=0;recursiveResize=0;shape=mxgraph.aws4.group;grIcon=mxgraph.aws4.group_security_group;grStroke=0;strokeColor=#147EBA;fillColor=#E6F2F8;verticalAlign=top;align=left;spacingLeft=30;fontColor=#147EBA;dashed=0;" vertex="1" parent="hTG3Fp_eBAEKHdMktmrF-2">
          <mxGeometry x="10" y="210" width="130" height="550" as="geometry" />
        </mxCell>
        <mxCell id="hTG3Fp_eBAEKHdMktmrF-12" value="" style="outlineConnect=0;dashed=0;verticalLabelPosition=bottom;verticalAlign=top;align=center;html=1;shape=mxgraph.aws3.ec2;fillColor=#F58534;gradientColor=none;" vertex="1" parent="hTG3Fp_eBAEKHdMktmrF-13">
          <mxGeometry x="26.75" y="18.5" width="76.5" height="93" as="geometry" />
        </mxCell>
        <mxCell id="hTG3Fp_eBAEKHdMktmrF-18" value="" style="outlineConnect=0;dashed=0;verticalLabelPosition=bottom;verticalAlign=top;align=center;html=1;shape=mxgraph.aws3.ec2;fillColor=#F58534;gradientColor=none;" vertex="1" parent="hTG3Fp_eBAEKHdMktmrF-13">
          <mxGeometry x="26.75" y="430" width="76.5" height="93" as="geometry" />
        </mxCell>
        <mxCell id="hTG3Fp_eBAEKHdMktmrF-47" value="&lt;font style=&quot;font-size: 12px;&quot;&gt;EC2 Instance&lt;br&gt;&lt;/font&gt;" style="text;html=1;align=center;verticalAlign=middle;resizable=0;points=[];autosize=1;strokeColor=none;fillColor=none;fontSize=20;" vertex="1" parent="hTG3Fp_eBAEKHdMktmrF-13">
          <mxGeometry x="20" y="510" width="100" height="40" as="geometry" />
        </mxCell>
        <mxCell id="hTG3Fp_eBAEKHdMktmrF-35" style="edgeStyle=orthogonalEdgeStyle;rounded=0;orthogonalLoop=1;jettySize=auto;html=1;" edge="1" parent="hTG3Fp_eBAEKHdMktmrF-2" source="hTG3Fp_eBAEKHdMktmrF-23" target="hTG3Fp_eBAEKHdMktmrF-34">
          <mxGeometry relative="1" as="geometry" />
        </mxCell>
        <mxCell id="hTG3Fp_eBAEKHdMktmrF-23" value="Auto Scaling group" style="points=[[0,0],[0.25,0],[0.5,0],[0.75,0],[1,0],[1,0.25],[1,0.5],[1,0.75],[1,1],[0.75,1],[0.5,1],[0.25,1],[0,1],[0,0.75],[0,0.5],[0,0.25]];outlineConnect=0;gradientColor=none;html=1;whiteSpace=wrap;fontSize=12;fontStyle=0;container=1;pointerEvents=0;collapsible=0;recursiveResize=0;shape=mxgraph.aws4.groupCenter;grIcon=mxgraph.aws4.group_auto_scaling_group;grStroke=1;strokeColor=#D86613;fillColor=none;verticalAlign=top;align=center;fontColor=#D86613;dashed=1;spacingTop=25;" vertex="1" parent="hTG3Fp_eBAEKHdMktmrF-2">
          <mxGeometry x="20" y="210" width="510" height="130" as="geometry" />
        </mxCell>
        <mxCell id="hTG3Fp_eBAEKHdMktmrF-43" value="&lt;font style=&quot;font-size: 12px;&quot;&gt;EC2 Instance&lt;br&gt;&lt;/font&gt;" style="text;html=1;align=center;verticalAlign=middle;resizable=0;points=[];autosize=1;strokeColor=none;fillColor=none;fontSize=20;" vertex="1" parent="hTG3Fp_eBAEKHdMktmrF-23">
          <mxGeometry y="90" width="100" height="40" as="geometry" />
        </mxCell>
        <mxCell id="hTG3Fp_eBAEKHdMktmrF-44" value="&lt;font style=&quot;font-size: 12px;&quot;&gt;EC2 Instance&lt;br&gt;&lt;/font&gt;" style="text;html=1;align=center;verticalAlign=middle;resizable=0;points=[];autosize=1;strokeColor=none;fillColor=none;fontSize=20;" vertex="1" parent="hTG3Fp_eBAEKHdMktmrF-23">
          <mxGeometry x="405" y="90" width="100" height="40" as="geometry" />
        </mxCell>
        <mxCell id="hTG3Fp_eBAEKHdMktmrF-28" value="Public subnet" style="points=[[0,0],[0.25,0],[0.5,0],[0.75,0],[1,0],[1,0.25],[1,0.5],[1,0.75],[1,1],[0.75,1],[0.5,1],[0.25,1],[0,1],[0,0.75],[0,0.5],[0,0.25]];outlineConnect=0;gradientColor=none;html=1;whiteSpace=wrap;fontSize=12;fontStyle=0;container=1;pointerEvents=0;collapsible=0;recursiveResize=0;shape=mxgraph.aws4.group;grIcon=mxgraph.aws4.group_security_group;grStroke=0;strokeColor=#248814;fillColor=#E9F3E6;verticalAlign=top;align=left;spacingLeft=30;fontColor=#248814;dashed=0;" vertex="1" parent="hTG3Fp_eBAEKHdMktmrF-2">
          <mxGeometry x="10" y="40" width="130" height="150" as="geometry" />
        </mxCell>
        <mxCell id="hTG3Fp_eBAEKHdMktmrF-26" value="" style="rounded=1;arcSize=10;dashed=1;strokeColor=#ff0000;fillColor=none;gradientColor=none;dashPattern=8 4;strokeWidth=2;" vertex="1" parent="hTG3Fp_eBAEKHdMktmrF-28">
          <mxGeometry x="5" y="31" width="120" height="110" as="geometry" />
        </mxCell>
        <mxCell id="hTG3Fp_eBAEKHdMktmrF-29" value="" style="outlineConnect=0;dashed=0;verticalLabelPosition=bottom;verticalAlign=top;align=center;html=1;shape=mxgraph.aws3.ec2;fillColor=#F58534;gradientColor=none;" vertex="1" parent="hTG3Fp_eBAEKHdMktmrF-28">
          <mxGeometry x="26.75" y="39.5" width="76.5" height="93" as="geometry" />
        </mxCell>
        <mxCell id="hTG3Fp_eBAEKHdMktmrF-30" value="Public subnet" style="points=[[0,0],[0.25,0],[0.5,0],[0.75,0],[1,0],[1,0.25],[1,0.5],[1,0.75],[1,1],[0.75,1],[0.5,1],[0.25,1],[0,1],[0,0.75],[0,0.5],[0,0.25]];outlineConnect=0;gradientColor=none;html=1;whiteSpace=wrap;fontSize=12;fontStyle=0;container=1;pointerEvents=0;collapsible=0;recursiveResize=0;shape=mxgraph.aws4.group;grIcon=mxgraph.aws4.group_security_group;grStroke=0;strokeColor=#248814;fillColor=#E9F3E6;verticalAlign=top;align=left;spacingLeft=30;fontColor=#248814;dashed=0;" vertex="1" parent="hTG3Fp_eBAEKHdMktmrF-2">
          <mxGeometry x="410" y="40" width="130" height="150" as="geometry" />
        </mxCell>
        <mxCell id="hTG3Fp_eBAEKHdMktmrF-33" value="" style="outlineConnect=0;dashed=0;verticalLabelPosition=bottom;verticalAlign=top;align=center;html=1;shape=mxgraph.aws3.vpc_nat_gateway;fillColor=#F58534;gradientColor=none;" vertex="1" parent="hTG3Fp_eBAEKHdMktmrF-30">
          <mxGeometry x="30.5" y="39.5" width="69" height="72" as="geometry" />
        </mxCell>
        <mxCell id="hTG3Fp_eBAEKHdMktmrF-37" style="edgeStyle=orthogonalEdgeStyle;rounded=0;orthogonalLoop=1;jettySize=auto;html=1;exitX=1;exitY=0.5;exitDx=0;exitDy=0;exitPerimeter=0;entryX=0.5;entryY=0;entryDx=0;entryDy=0;" edge="1" parent="hTG3Fp_eBAEKHdMktmrF-2" source="hTG3Fp_eBAEKHdMktmrF-34" target="hTG3Fp_eBAEKHdMktmrF-36">
          <mxGeometry relative="1" as="geometry" />
        </mxCell>
        <mxCell id="hTG3Fp_eBAEKHdMktmrF-34" value="" style="outlineConnect=0;dashed=0;verticalLabelPosition=bottom;verticalAlign=top;align=center;html=1;shape=mxgraph.aws3.classic_load_balancer;fillColor=#F58534;gradientColor=none;rotation=90;" vertex="1" parent="hTG3Fp_eBAEKHdMktmrF-2">
          <mxGeometry x="240" y="360" width="69" height="70" as="geometry" />
        </mxCell>
        <mxCell id="hTG3Fp_eBAEKHdMktmrF-40" style="edgeStyle=orthogonalEdgeStyle;rounded=0;orthogonalLoop=1;jettySize=auto;html=1;exitX=0.5;exitY=1;exitDx=0;exitDy=0;entryX=0.5;entryY=0;entryDx=0;entryDy=0;entryPerimeter=0;" edge="1" parent="hTG3Fp_eBAEKHdMktmrF-2" source="hTG3Fp_eBAEKHdMktmrF-36" target="hTG3Fp_eBAEKHdMktmrF-18">
          <mxGeometry relative="1" as="geometry" />
        </mxCell>
        <mxCell id="hTG3Fp_eBAEKHdMktmrF-36" value="Auto Scaling group" style="points=[[0,0],[0.25,0],[0.5,0],[0.75,0],[1,0],[1,0.25],[1,0.5],[1,0.75],[1,1],[0.75,1],[0.5,1],[0.25,1],[0,1],[0,0.75],[0,0.5],[0,0.25]];outlineConnect=0;gradientColor=none;html=1;whiteSpace=wrap;fontSize=12;fontStyle=0;container=1;pointerEvents=0;collapsible=0;recursiveResize=0;shape=mxgraph.aws4.groupCenter;grIcon=mxgraph.aws4.group_auto_scaling_group;grStroke=1;strokeColor=#D86613;fillColor=none;verticalAlign=top;align=center;fontColor=#D86613;dashed=1;spacingTop=25;" vertex="1" parent="hTG3Fp_eBAEKHdMktmrF-2">
          <mxGeometry x="19.5" y="450" width="510" height="130" as="geometry" />
        </mxCell>
        <mxCell id="hTG3Fp_eBAEKHdMktmrF-21" value="" style="outlineConnect=0;dashed=0;verticalLabelPosition=bottom;verticalAlign=top;align=center;html=1;shape=mxgraph.aws3.ec2;fillColor=#F58534;gradientColor=none;" vertex="1" parent="hTG3Fp_eBAEKHdMktmrF-36">
          <mxGeometry x="417.25" y="10" width="76.5" height="93" as="geometry" />
        </mxCell>
        <mxCell id="hTG3Fp_eBAEKHdMktmrF-17" value="" style="outlineConnect=0;dashed=0;verticalLabelPosition=bottom;verticalAlign=top;align=center;html=1;shape=mxgraph.aws3.ec2;fillColor=#F58534;gradientColor=none;" vertex="1" parent="hTG3Fp_eBAEKHdMktmrF-36">
          <mxGeometry x="17.25" y="10" width="76.5" height="93" as="geometry" />
        </mxCell>
        <mxCell id="hTG3Fp_eBAEKHdMktmrF-45" value="&lt;font style=&quot;font-size: 12px;&quot;&gt;EC2 Instance&lt;br&gt;&lt;/font&gt;" style="text;html=1;align=center;verticalAlign=middle;resizable=0;points=[];autosize=1;strokeColor=none;fillColor=none;fontSize=20;" vertex="1" parent="hTG3Fp_eBAEKHdMktmrF-36">
          <mxGeometry x="5.5" y="90" width="100" height="40" as="geometry" />
        </mxCell>
        <mxCell id="hTG3Fp_eBAEKHdMktmrF-46" value="&lt;font style=&quot;font-size: 12px;&quot;&gt;EC2 Instance&lt;br&gt;&lt;/font&gt;" style="text;html=1;align=center;verticalAlign=middle;resizable=0;points=[];autosize=1;strokeColor=none;fillColor=none;fontSize=20;" vertex="1" parent="hTG3Fp_eBAEKHdMktmrF-36">
          <mxGeometry x="405.5" y="90" width="100" height="40" as="geometry" />
        </mxCell>
        <mxCell id="hTG3Fp_eBAEKHdMktmrF-38" style="edgeStyle=orthogonalEdgeStyle;rounded=0;orthogonalLoop=1;jettySize=auto;html=1;" edge="1" parent="hTG3Fp_eBAEKHdMktmrF-2" source="hTG3Fp_eBAEKHdMktmrF-18" target="hTG3Fp_eBAEKHdMktmrF-22">
          <mxGeometry relative="1" as="geometry" />
        </mxCell>
        <mxCell id="hTG3Fp_eBAEKHdMktmrF-39" style="edgeStyle=orthogonalEdgeStyle;rounded=0;orthogonalLoop=1;jettySize=auto;html=1;exitX=0.5;exitY=0;exitDx=0;exitDy=0;exitPerimeter=0;" edge="1" parent="hTG3Fp_eBAEKHdMktmrF-2" source="hTG3Fp_eBAEKHdMktmrF-18" target="hTG3Fp_eBAEKHdMktmrF-36">
          <mxGeometry relative="1" as="geometry" />
        </mxCell>
        <mxCell id="hTG3Fp_eBAEKHdMktmrF-42" value="Three-Tier Architecture in AWS" style="text;html=1;align=center;verticalAlign=middle;resizable=0;points=[];autosize=1;strokeColor=none;fillColor=none;fontSize=20;fontStyle=1" vertex="1" parent="1">
          <mxGeometry x="285" y="10" width="320" height="40" as="geometry" />
        </mxCell>
      </root>
    </mxGraphModel>
  </diagram>
</mxfile>
